<svg width="117" height="166" viewBox="0 0 117 166" fill="none" xmlns="http://www.w3.org/2000/svg">
<path d="M112.8 53.0895V129.669C112.8 153.232 100.628 161.086 85.6 161.086H31.2C16.172 161.086 4 153.232 4 129.669V53.0895C4 27.5629 16.172 21.6722 31.2 21.6722C31.2 26.5419 32.8998 30.9403 35.6878 34.1606C38.4758 37.3808 42.284 39.3444 46.5 39.3444H70.3C78.732 39.3444 85.6 31.4116 85.6 21.6722C100.628 21.6722 112.8 27.5629 112.8 53.0895Z" stroke="white" stroke-width="8" stroke-linecap="round" stroke-linejoin="round"/>
<path d="M85.6 21.6722C85.6 31.4116 78.732 39.3444 70.3 39.3444H46.5C42.284 39.3444 38.4758 37.3809 35.6878 34.1606C32.8998 30.9403 31.2 26.5419 31.2 21.6722C31.2 11.9329 38.068 4 46.5 4H70.3C74.516 4 78.324 5.96358 81.112 9.18385C83.9 12.4041 85.6 16.8025 85.6 21.6722Z" stroke="white" stroke-width="8" stroke-linecap="round" stroke-linejoin="round"/>
<path d="M31.2 90.3975H58.4" stroke="white" stroke-width="8" stroke-linecap="round" stroke-linejoin="round"/>
<path d="M31.2 121.815H85.6" stroke="white" stroke-width="8" stroke-linecap="round" stroke-linejoin="round"/>
</svg>
