<svg width="43" height="159" viewBox="0 0 43 159" fill="none" xmlns="http://www.w3.org/2000/svg">
<path d="M15.65 41H27.35C37.1 41 41 37.1 41 27.35V15.65C41 5.9 37.1 2 27.35 2H15.65C5.9 2 2 5.9 2 15.65V27.35C2 37.1 5.9 41 15.65 41Z" stroke="#292D32" stroke-width="3" stroke-linecap="round" stroke-linejoin="round"/>
<path d="M21.4998 28.325C25.2692 28.325 28.3248 25.2694 28.3248 21.5C28.3248 17.7307 25.2692 14.675 21.4998 14.675C17.7305 14.675 14.6748 17.7307 14.6748 21.5C14.6748 25.2694 17.7305 28.325 21.4998 28.325Z" stroke="#292D32" stroke-width="3" stroke-linecap="round" stroke-linejoin="round"/>
<path d="M32.4902 11.75H32.5129" stroke="#292D32" stroke-width="3" stroke-linecap="round" stroke-linejoin="round"/>
<path d="M15.65 41H27.35C37.1 41 41 37.1 41 27.35V15.65C41 5.9 37.1 2 27.35 2H15.65C5.9 2 2 5.9 2 15.65V27.35C2 37.1 5.9 41 15.65 41Z" stroke="#292D32" stroke-width="3" stroke-linecap="round" stroke-linejoin="round"/>
<path d="M21.4998 28.325C25.2692 28.325 28.3248 25.2694 28.3248 21.5C28.3248 17.7307 25.2692 14.675 21.4998 14.675C17.7305 14.675 14.6748 17.7307 14.6748 21.5C14.6748 25.2694 17.7305 28.325 21.4998 28.325Z" stroke="#292D32" stroke-width="3" stroke-linecap="round" stroke-linejoin="round"/>
<path d="M32.4902 11.75H32.5129" stroke="#292D32" stroke-width="3" stroke-linecap="round" stroke-linejoin="round"/>
<path d="M15.65 99H27.35C37.1 99 41 95.1 41 85.35V73.65C41 63.9 37.1 60 27.35 60H15.65C5.9 60 2 63.9 2 73.65V85.35C2 95.1 5.9 99 15.65 99Z" stroke="#292D32" stroke-width="3" stroke-linecap="round" stroke-linejoin="round"/>
<path d="M21.4998 86.325C25.2692 86.325 28.3248 83.2694 28.3248 79.5C28.3248 75.7307 25.2692 72.675 21.4998 72.675C17.7305 72.675 14.6748 75.7307 14.6748 79.5C14.6748 83.2694 17.7305 86.325 21.4998 86.325Z" stroke="#292D32" stroke-width="3" stroke-linecap="round" stroke-linejoin="round"/>
<path d="M32.4902 69.75H32.5129" stroke="#292D32" stroke-width="3" stroke-linecap="round" stroke-linejoin="round"/>
<path d="M15.65 157H27.35C37.1 157 41 153.1 41 143.35V131.65C41 121.9 37.1 118 27.35 118H15.65C5.9 118 2 121.9 2 131.65V143.35C2 153.1 5.9 157 15.65 157Z" stroke="#292D32" stroke-width="3" stroke-linecap="round" stroke-linejoin="round"/>
<path d="M21.4998 144.325C25.2692 144.325 28.3248 141.269 28.3248 137.5C28.3248 133.731 25.2692 130.675 21.4998 130.675C17.7305 130.675 14.6748 133.731 14.6748 137.5C14.6748 141.269 17.7305 144.325 21.4998 144.325Z" stroke="#292D32" stroke-width="3" stroke-linecap="round" stroke-linejoin="round"/>
<path d="M32.4902 127.75H32.5129" stroke="#292D32" stroke-width="3" stroke-linecap="round" stroke-linejoin="round"/>
</svg>
