<svg width="1920" height="617" viewBox="0 0 1920 617" fill="none" xmlns="http://www.w3.org/2000/svg">
<path d="M0 23.6011C0 10.5666 18.804 0 42 0H1878C1901.2 0 1920 10.5666 1920 23.6011V593.399C1920 606.433 1901.2 617 1878 617H42C18.8041 617 0 606.433 0 593.399V23.6011Z" fill="#E0E4E9"/>
<path d="M0 23.6011C0 10.5666 18.804 0 42 0H1878C1901.2 0 1920 10.5666 1920 23.6011V593.399C1920 606.433 1901.2 617 1878 617H42C18.8041 617 0 606.433 0 593.399V23.6011Z" fill="url(#paint0_linear_68_183)" fill-opacity="0.2"/>
<defs>
<linearGradient id="paint0_linear_68_183" x1="960" y1="0" x2="960" y2="617" gradientUnits="userSpaceOnUse">
<stop offset="0.0100373" stop-color="#004AAD" stop-opacity="0"/>
<stop offset="1"/>
</linearGradient>
</defs>
</svg>
