<svg width="1023" height="925" viewBox="0 0 1023 925" fill="none" xmlns="http://www.w3.org/2000/svg">
<rect width="792.398" height="667.253" rx="121" transform="matrix(0.909205 -0.416348 0.453033 0.891494 0 329.914)" fill="#F25A3F"/>
<rect width="792.398" height="667.253" rx="121" transform="matrix(0.909205 -0.416348 0.453033 0.891494 0 329.914)" fill="url(#paint0_linear_118_28)" fill-opacity="0.2"/>
<path d="M717.402 390.959L769.046 390.959C805.221 390.959 834.546 420.284 834.546 456.459L834.546 717.946C834.546 754.121 805.221 783.446 769.046 783.446L717.402 783.446C681.227 783.446 651.902 754.121 651.902 717.946L651.902 456.459C651.902 420.284 681.227 390.959 717.402 390.959Z" stroke="#F1F5F9" stroke-width="11"/>
<path d="M717.402 390.959L769.046 390.959C805.221 390.959 834.546 420.284 834.546 456.459L834.546 717.946C834.546 754.121 805.221 783.446 769.046 783.446L717.402 783.446C681.227 783.446 651.902 754.121 651.902 717.946L651.902 456.459C651.902 420.284 681.227 390.959 717.402 390.959Z" stroke="#F1F5F9" stroke-width="11"/>
<path d="M448.429 226.666L491.606 250.329C523.328 267.715 533.806 306.865 515.008 337.772L376.273 565.88C357.475 596.787 316.52 607.748 284.797 590.362L241.621 566.698C209.898 549.312 199.421 510.163 218.218 479.256L356.954 251.148C375.752 220.241 416.707 209.28 448.429 226.666Z" stroke="#F1F5F9" stroke-width="11"/>
<path d="M499.189 440.16L557.326 344.573L615.462 440.16L499.189 440.16Z" stroke="#F1F5F9" stroke-width="11"/>
<path d="M507.329 651.1L608.039 595.905L608.039 706.296L507.329 651.1Z" stroke="#F1F5F9" stroke-width="11"/>
<defs>
<linearGradient id="paint0_linear_118_28" x1="647.467" y1="364.131" x2="169.116" y2="363.569" gradientUnits="userSpaceOnUse">
<stop offset="0.198436" stop-opacity="0"/>
<stop offset="0.549719"/>
</linearGradient>
</defs>
</svg>
