<svg width="1920" height="5386" viewBox="0 0 1920 5386" fill="none" xmlns="http://www.w3.org/2000/svg">
<path d="M120.241 3693.69C90.1323 3715.67 47.9044 3709.08 25.9225 3678.98L1.26239 3645.2C-20.7195 3615.09 -14.1314 3572.86 15.9774 3550.88L227.169 3396.69C257.278 3374.71 299.506 3381.3 321.488 3411.41L346.148 3445.18C368.13 3475.29 361.542 3517.52 331.433 3539.5L120.241 3693.69Z" stroke="#E0E4E9" stroke-width="7"/>
<path d="M195.059 3820.42L78.9048 3832.9L126.174 3726.07L195.059 3820.42Z" stroke="#E0E4E9" stroke-width="7"/>
<path d="M359.612 3691.36L252.78 3644.09L347.132 3575.21L359.612 3691.36Z" stroke="#E0E4E9" stroke-width="7"/>
<path d="M472.815 2221.58C447.31 2195.92 447.429 2154.45 473.082 2128.95L502.739 2099.46C528.392 2073.95 569.864 2074.07 595.37 2099.73L779.736 2285.16C805.242 2310.81 805.122 2352.28 779.469 2377.79L749.812 2407.28C724.159 2432.78 682.687 2432.66 657.182 2407.01L472.815 2221.58Z" stroke="#E0E4E9" stroke-width="11"/>
<path d="M358.495 2312.26L330.358 2206.03L436.425 2234.77L358.495 2312.26Z" stroke="#E0E4E9" stroke-width="11"/>
<path d="M512.752 2456.43L541.5 2350.36L618.983 2428.29L512.752 2456.43Z" stroke="#E0E4E9" stroke-width="11"/>
<path d="M1536.54 2799.72C1554.62 2832.63 1542.58 2873.97 1509.67 2892.05L1473.01 2912.18C1440.09 2930.26 1398.75 2918.23 1380.67 2885.31L1254.81 2656.11C1236.73 2623.19 1248.76 2581.85 1281.68 2563.77L1318.34 2543.64C1351.25 2525.57 1392.59 2537.6 1410.67 2570.51L1536.54 2799.72Z" stroke="#E0E4E9" stroke-width="6"/>
<path d="M1671.89 2741.13L1669.35 2859.66L1567.97 2798.2L1671.89 2741.13Z" stroke="#E0E4E9" stroke-width="6"/>
<path d="M1565.33 2561.78L1503.87 2663.16L1446.8 2559.24L1565.33 2561.78Z" stroke="#E0E4E9" stroke-width="6"/>
<path d="M1671.82 3432.58C1646.31 3406.92 1646.43 3365.45 1672.08 3339.95L1701.74 3310.46C1727.39 3284.95 1768.87 3285.07 1794.37 3310.73L1978.74 3496.16C2004.24 3521.81 2004.12 3563.28 1978.47 3588.79L1948.81 3618.28C1923.16 3643.78 1881.69 3643.66 1856.18 3618.01L1671.82 3432.58Z" stroke="#E0E4E9" stroke-width="11"/>
<path d="M1557.5 3523.26L1529.36 3417.03L1635.43 3445.77L1557.5 3523.26Z" stroke="#E0E4E9" stroke-width="11"/>
<path d="M1711.75 3667.43L1740.5 3561.36L1817.98 3639.29L1711.75 3667.43Z" stroke="#E0E4E9" stroke-width="11"/>
<path d="M1536.54 2799.72C1554.62 2832.63 1542.58 2873.97 1509.67 2892.05L1473.01 2912.18C1440.09 2930.26 1398.75 2918.23 1380.67 2885.31L1254.81 2656.11C1236.73 2623.19 1248.76 2581.85 1281.68 2563.77L1318.34 2543.64C1351.25 2525.57 1392.59 2537.6 1410.67 2570.51L1536.54 2799.72Z" stroke="#E0E4E9" stroke-width="6"/>
<path d="M1671.89 2741.13L1669.35 2859.66L1567.97 2798.2L1671.89 2741.13Z" stroke="#E0E4E9" stroke-width="6"/>
<path d="M1565.33 2561.78L1503.87 2663.16L1446.8 2559.24L1565.33 2561.78Z" stroke="#E0E4E9" stroke-width="6"/>
<path d="M279.164 4571.97C313.437 4556.61 353.669 4571.95 369.023 4606.22L386.121 4644.39C401.475 4678.66 386.138 4718.89 351.865 4734.25L113.23 4841.16C78.9567 4856.51 38.7257 4841.17 23.3715 4806.9L6.27325 4768.73C-9.08094 4734.46 6.25598 4694.23 40.5292 4678.88L279.164 4571.97Z" stroke="#E0E4E9" stroke-width="6"/>
<path d="M44.3359 4524.02L140.409 4593.48L32.2154 4641.95L44.3359 4524.02Z" stroke="#E0E4E9" stroke-width="6"/>
<path d="M1038.54 4345.72C1056.62 4378.63 1044.59 4419.97 1011.67 4438.05L975.009 4458.18C942.091 4476.26 900.751 4464.23 882.674 4431.31L756.807 4202.11C738.73 4169.19 750.761 4127.85 783.679 4109.77L820.336 4089.64C853.255 4071.56 894.595 4083.6 912.672 4116.51L1038.54 4345.72Z" stroke="#E0E4E9" stroke-width="6"/>
<path d="M1173.89 4287.13L1171.35 4405.66L1069.97 4344.2L1173.89 4287.13Z" stroke="#E0E4E9" stroke-width="6"/>
<path d="M1067.33 4107.78L1005.87 4209.16L948.801 4105.24L1067.33 4107.78Z" stroke="#E0E4E9" stroke-width="6"/>
<path d="M1665.03 4814.96C1642.23 4844.8 1599.55 4850.5 1569.71 4827.69L1536.49 4802.29C1506.65 4779.48 1500.95 4736.81 1523.76 4706.97L1682.57 4499.23C1705.37 4469.39 1748.05 4463.69 1777.89 4486.5L1811.11 4511.9C1840.95 4534.71 1846.65 4577.39 1823.84 4607.22L1665.03 4814.96Z" stroke="#E0E4E9" stroke-width="6"/>
<path d="M1773.31 4915.1L1663.86 4960.67L1679.12 4843.1L1773.31 4915.1Z" stroke="#E0E4E9" stroke-width="6"/>
<path d="M1894.32 4745.16L1776.75 4729.9L1848.75 4635.71L1894.32 4745.16Z" stroke="#E0E4E9" stroke-width="6"/>
<path d="M-77.6743 179.266C-109.002 161.179 -119.736 121.12 -101.649 89.7916L-72.0973 38.6065C-54.0099 7.27837 -13.9508 -3.45541 17.3774 14.6319L276.684 164.343C308.013 182.43 318.746 222.489 300.659 253.818L271.107 305.003C253.02 336.331 212.961 347.065 181.633 328.977L-77.6743 179.266Z" stroke="#F1F5F9" stroke-width="11"/>
<path d="M145 50.4562L27.9539 -17.5L145 -85.4562L145 50.4562Z" stroke="#F1F5F9" stroke-width="11"/>
<path d="M595.682 -102.748C616.483 -132.345 657.337 -139.475 686.934 -118.675L721.15 -94.6273C750.746 -73.8268 757.877 -32.9721 737.076 -3.37568L586.72 210.561C565.92 240.157 525.065 247.288 495.469 226.487L461.253 202.44C431.656 181.64 424.526 140.785 445.326 111.189L595.682 -102.748Z" stroke="#F1F5F9" stroke-width="11"/>
<path d="M98.8853 3028.64C116.963 3061.56 104.932 3102.9 72.0132 3120.98L35.3556 3141.11C2.43727 3159.19 -38.9029 3147.16 -56.9801 3114.24L-182.847 2885.04C-200.924 2852.12 -188.893 2810.78 -155.975 2792.7L-119.317 2772.57C-86.3989 2754.49 -45.0588 2766.52 -26.9816 2799.44L98.8853 3028.64Z" stroke="#E0E4E9" stroke-width="6"/>
<path d="M234.233 2970.06L231.695 3088.59L130.316 3027.13L234.233 2970.06Z" stroke="#E0E4E9" stroke-width="6"/>
<path d="M127.675 2790.71L66.2137 2892.08L9.14749 2788.17L127.675 2790.71Z" stroke="#E0E4E9" stroke-width="6"/>
<path d="M-21.342 921.723C-46.9213 947.302 -88.3937 947.302 -113.973 921.723L-143.545 892.151C-169.124 866.571 -169.124 825.099 -143.545 799.52L41.3546 614.62C66.9339 589.041 108.406 589.041 133.986 614.62L163.558 644.192C189.137 669.771 189.137 711.244 163.558 736.823L-21.342 921.723Z" stroke="#E0E4E9" stroke-width="11"/>
<path d="M69.6673 1035.78L-36.4826 1064.22L-8.03986 958.075L69.6673 1035.78Z" stroke="#E0E4E9" stroke-width="11"/>
<path d="M213.395 881.11L107.245 852.667L184.952 774.96L213.395 881.11Z" stroke="#E0E4E9" stroke-width="11"/>
<path d="M1564.27 1976.4C1583.73 1944.28 1625.54 1934.02 1657.66 1953.48L1693.43 1975.15C1725.55 1994.61 1735.81 2036.43 1716.35 2068.55L1580.85 2292.19C1561.39 2324.31 1519.58 2334.57 1487.46 2315.11L1451.69 2293.44C1419.57 2273.97 1409.31 2232.16 1428.77 2200.04L1564.27 1976.4Z" stroke="#E0E4E9" stroke-width="6"/>
<path d="M1445.84 1888.51L1549.74 1831.42L1547.23 1949.94L1445.84 1888.51Z" stroke="#E0E4E9" stroke-width="6"/>
<path d="M1343.84 2070.49L1462.37 2073L1400.93 2174.4L1343.84 2070.49Z" stroke="#E0E4E9" stroke-width="6"/>
<path d="M1830.52 1427.47C1830.52 1391.3 1859.84 1361.97 1896.02 1361.97H1937.84C1974.01 1361.97 2003.34 1391.3 2003.34 1427.47V1688.96C2003.34 1725.13 1974.01 1754.46 1937.84 1754.46H1896.02C1859.84 1754.46 1830.52 1725.13 1830.52 1688.96V1427.47Z" stroke="#E0E4E9" stroke-width="11"/>
<path d="M1685.51 1411.17L1740.46 1316L1795.41 1411.17H1685.51Z" stroke="#E0E4E9" stroke-width="11"/>
<path d="M1693.25 1622.17L1788.42 1567.22L1788.42 1677.12L1693.25 1622.17Z" stroke="#E0E4E9" stroke-width="11"/>
<path d="M1163.86 993.479C1196.87 1010.2 1210.08 1050.51 1193.36 1083.52L1174.46 1120.83C1157.74 1153.84 1117.42 1167.05 1084.42 1150.33L851.147 1032.17C818.137 1015.45 804.932 975.131 821.652 942.122L840.55 904.814C857.271 871.804 897.586 858.599 930.595 875.319L1163.86 993.479Z" stroke="#E0E4E9" stroke-width="8"/>
<path d="M977.832 1161.51L1077.5 1219.05L977.832 1276.6L977.832 1161.51Z" stroke="#E0E4E9" stroke-width="8"/>
<path d="M1048.06 789.759L1054.36 904.677L951.689 852.671L1048.06 789.759Z" stroke="#E0E4E9" stroke-width="8"/>
<rect x="-381.883" y="539.501" width="743.17" height="656.05" rx="121" transform="rotate(-111.775 -381.883 539.501)" fill="#1846BD"/>
<rect x="-381.883" y="539.501" width="743.17" height="656.05" rx="121" transform="rotate(-111.775 -381.883 539.501)" fill="url(#paint0_linear_68_20)" fill-opacity="0.1"/>
<rect x="-381.883" y="539.501" width="743.17" height="656.05" rx="121" transform="rotate(-111.775 -381.883 539.501)" stroke="#F1F5F9" stroke-width="7"/>
<rect x="-381.883" y="539.501" width="743.17" height="656.05" rx="121" transform="rotate(-111.775 -381.883 539.501)" stroke="#1A46B6" stroke-width="7"/>
<path d="M-223.606 77.6872C-259.693 75.1777 -286.914 43.8886 -284.404 7.80113L-281.503 -33.9194C-278.994 -70.0069 -247.704 -97.2272 -211.617 -94.7177L49.2407 -76.5776C85.3282 -74.0681 112.549 -42.779 110.039 -6.69154L107.138 35.029C104.628 71.1165 73.3393 98.3368 37.2518 95.8273L-223.606 77.6872Z" stroke="#F1F5F9" stroke-width="11"/>
<path d="M226.682 64.2516C247.482 34.6553 288.337 27.5247 317.934 48.3252L352.15 72.3725C381.746 93.173 388.877 134.028 368.076 163.624L217.72 377.561C196.92 407.157 156.065 414.288 126.469 393.487L92.2525 369.44C62.6561 348.639 55.5256 307.785 76.3261 278.188L226.682 64.2516Z" stroke="#F1F5F9" stroke-width="11"/>
<rect x="1336.16" y="298.382" width="742.654" height="687.221" rx="121" transform="rotate(-26.4504 1336.16 298.382)" fill="#1846BD"/>
<rect x="1336.16" y="298.382" width="742.654" height="687.221" rx="121" transform="rotate(-26.4504 1336.16 298.382)" fill="url(#paint1_linear_68_20)" fill-opacity="0.2"/>
<rect x="1336.16" y="298.382" width="742.654" height="687.221" rx="121" transform="rotate(-26.4504 1336.16 298.382)" stroke="#F1F5F9" stroke-width="7"/>
<rect x="1336.16" y="298.382" width="742.654" height="687.221" rx="121" transform="rotate(-26.4504 1336.16 298.382)" stroke="#1A46B6" stroke-width="7"/>
<path d="M1859.36 125.167C1858.92 88.995 1887.89 59.3145 1924.06 58.8739L1965.88 58.3644C2002.05 57.9238 2031.73 86.8897 2032.17 123.062L2035.36 384.53C2035.8 420.702 2006.83 450.382 1970.66 450.823L1928.84 451.332C1892.67 451.773 1862.99 422.807 1862.55 386.635L1859.36 125.167Z" stroke="#F1F5F9" stroke-width="11"/>
<path d="M1523.24 218.169C1538.72 185.47 1577.77 171.507 1610.47 186.98L1663.89 212.261C1696.59 227.734 1710.55 266.785 1695.08 299.483L1567 570.131C1551.53 602.83 1512.48 616.793 1479.78 601.32L1426.36 576.039C1393.66 560.566 1379.7 521.515 1395.17 488.817L1523.24 218.169Z" stroke="#F1F5F9" stroke-width="11"/>
<path d="M1711.91 661.41L1770.1 539.213L1847.37 650.33L1711.91 661.41Z" stroke="#F1F5F9" stroke-width="11"/>
<path d="M1859.21 866.294C1890.4 884.613 1900.84 924.75 1882.52 955.944L1861.35 992.006C1843.03 1023.2 1802.89 1033.64 1771.7 1015.32L1546.21 882.903C1515.02 864.584 1504.58 824.447 1522.9 793.253L1544.08 757.191C1562.4 725.997 1602.54 715.56 1633.73 733.879L1859.21 866.294Z" stroke="#F1F5F9" stroke-width="11"/>
<rect x="1642.31" y="2495.55" width="696.602" height="614.941" rx="121" transform="rotate(-30.3602 1642.31 2495.55)" fill="#1846BD"/>
<rect x="1642.31" y="2495.55" width="696.602" height="614.941" rx="121" transform="rotate(-30.3602 1642.31 2495.55)" fill="url(#paint2_linear_68_20)" fill-opacity="0.1"/>
<rect x="1642.31" y="2495.55" width="696.602" height="614.941" rx="121" transform="rotate(-30.3602 1642.31 2495.55)" stroke="#F1F5F9" stroke-width="7"/>
<rect x="1642.31" y="2495.55" width="696.602" height="614.941" rx="121" transform="rotate(-30.3602 1642.31 2495.55)" stroke="#1A46B6" stroke-width="7"/>
<path d="M1811.04 2412.73C1824.25 2379.05 1862.26 2362.46 1895.93 2375.66L1939.22 2392.64C1972.9 2405.85 1989.5 2443.86 1976.29 2477.54L1877.07 2730.54C1863.86 2764.21 1825.85 2780.81 1792.17 2767.6L1748.88 2750.62C1715.2 2737.41 1698.61 2699.41 1711.82 2665.73L1811.04 2412.73Z" stroke="#F1F5F9" stroke-width="11"/>
<path d="M2163.82 2991.41C2196.19 3007.56 2209.34 3046.89 2193.19 3079.26L2179.66 3106.38C2163.51 3138.75 2124.18 3151.9 2091.81 3135.75L1880.44 3030.3C1848.07 3014.15 1834.93 2974.82 1851.07 2942.45L1864.6 2915.33C1880.75 2882.96 1920.08 2869.81 1952.45 2885.96L2163.82 2991.41Z" stroke="#F1F5F9" stroke-width="11"/>
<rect x="582.871" y="4649.91" width="743.169" height="656.05" rx="121" transform="rotate(126.055 582.871 4649.91)" fill="#1846BD"/>
<rect x="582.871" y="4649.91" width="743.169" height="656.05" rx="121" transform="rotate(126.055 582.871 4649.91)" fill="url(#paint3_linear_68_20)" fill-opacity="0.2"/>
<rect x="582.871" y="4649.91" width="743.169" height="656.05" rx="121" transform="rotate(126.055 582.871 4649.91)" stroke="#F1F5F9" stroke-width="7"/>
<rect x="582.871" y="4649.91" width="743.169" height="656.05" rx="121" transform="rotate(126.055 582.871 4649.91)" stroke="#1A46B6" stroke-width="7"/>
<path d="M107.687 4761.82C124.777 4793.7 112.785 4833.4 80.9019 4850.49L44.042 4870.25C12.1589 4887.34 -27.5417 4875.35 -44.6318 4843.46L-168.167 4613C-185.257 4581.12 -173.265 4541.41 -141.382 4524.32L-104.522 4504.57C-72.6391 4487.48 -32.9385 4499.47 -15.8484 4531.35L107.687 4761.82Z" stroke="#F1F5F9" stroke-width="11"/>
<path d="M453.801 4807.64C455.171 4843.79 426.977 4874.2 390.828 4875.57L331.767 4877.81C295.619 4879.18 265.204 4850.99 263.834 4814.84L252.495 4515.63C251.125 4479.48 279.319 4449.07 315.467 4447.7L374.528 4445.46C410.677 4444.09 441.092 4472.28 442.462 4508.43L453.801 4807.64Z" stroke="#F1F5F9" stroke-width="11"/>
<path d="M226.207 4687.73L231.004 4822.99L111.161 4760.1L226.207 4687.73Z" stroke="#F1F5F9" stroke-width="11"/>
<path d="M-143.436 4387.82C-179.563 4385.97 -207.352 4355.18 -205.503 4319.06L-203.366 4277.29C-201.517 4241.16 -170.731 4213.37 -134.604 4215.22L126.542 4228.59C162.67 4230.43 190.458 4261.22 188.609 4297.35L186.472 4339.11C184.623 4375.24 153.837 4403.03 117.71 4401.18L-143.436 4387.82Z" stroke="#F1F5F9" stroke-width="11"/>
<defs>
<linearGradient id="paint0_linear_68_20" x1="330.976" y1="586.689" x2="-347.567" y2="1154.49" gradientUnits="userSpaceOnUse">
<stop stop-opacity="0"/>
<stop offset="1"/>
</linearGradient>
<linearGradient id="paint1_linear_68_20" x1="2048.53" y1="347.812" x2="1344.38" y2="909.927" gradientUnits="userSpaceOnUse">
<stop stop-opacity="0"/>
<stop offset="1"/>
</linearGradient>
<linearGradient id="paint2_linear_68_20" x1="2310.5" y1="2539.78" x2="1674.48" y2="3072.01" gradientUnits="userSpaceOnUse">
<stop stop-opacity="0"/>
<stop offset="1"/>
</linearGradient>
<linearGradient id="paint3_linear_68_20" x1="1295.73" y1="4697.1" x2="617.187" y2="5264.9" gradientUnits="userSpaceOnUse">
<stop stop-opacity="0"/>
<stop offset="1"/>
</linearGradient>
</defs>
</svg>
