<svg width="3296" height="5821" viewBox="0 0 3296 5821" fill="none" xmlns="http://www.w3.org/2000/svg">
<path d="M729.923 4113.98L705.262 4080.2C683.281 4050.09 689.869 4007.86 719.977 3985.88L931.169 3831.69C961.278 3809.71 1003.51 3816.3 1025.49 3846.41L1050.15 3880.18C1072.13 3910.29 1065.54 3952.52 1035.43 3974.5L824.241 4128.69C794.132 4150.67 751.904 4144.08 729.923 4113.98Z" stroke="#E0E4E9" stroke-width="7"/>
<path d="M899.059 4255.42L782.905 4267.9L830.174 4161.07L899.059 4255.42Z" stroke="#E0E4E9" stroke-width="7"/>
<path d="M1063.61 4126.36L956.78 4079.09L1051.13 4010.21L1063.61 4126.36Z" stroke="#E0E4E9" stroke-width="7"/>
<path d="M1177.08 2563.95L1206.74 2534.46C1232.39 2508.95 1273.86 2509.07 1299.37 2534.73L1483.74 2720.16C1509.24 2745.81 1509.12 2787.28 1483.47 2812.79L1453.81 2842.28C1428.16 2867.78 1386.69 2867.66 1361.18 2842.01L1176.82 2656.58C1151.31 2630.92 1151.43 2589.45 1177.08 2563.95Z" stroke="#E0E4E9" stroke-width="11"/>
<path d="M1062.49 2747.26L1034.36 2641.03L1140.43 2669.77L1062.49 2747.26Z" stroke="#E0E4E9" stroke-width="11"/>
<path d="M1216.75 2891.43L1245.5 2785.36L1322.98 2863.29L1216.75 2891.43Z" stroke="#E0E4E9" stroke-width="11"/>
<path d="M2213.67 3327.05L2177.01 3347.18C2144.09 3365.26 2102.75 3353.23 2084.67 3320.31L1958.81 3091.11C1940.73 3058.19 1952.76 3016.85 1985.68 2998.77L2022.34 2978.64C2055.25 2960.57 2096.59 2972.6 2114.67 3005.51L2240.54 3234.72C2258.62 3267.63 2246.58 3308.97 2213.67 3327.05Z" stroke="#E0E4E9" stroke-width="6"/>
<path d="M2375.89 3176.13L2373.35 3294.66L2271.97 3233.2L2375.89 3176.13Z" stroke="#E0E4E9" stroke-width="6"/>
<path d="M2269.33 2996.78L2207.87 3098.16L2150.8 2994.24L2269.33 2996.78Z" stroke="#E0E4E9" stroke-width="6"/>
<path d="M2376.08 3774.95L2405.74 3745.46C2431.39 3719.95 2472.87 3720.07 2498.37 3745.73L2682.74 3931.16C2708.24 3956.81 2708.12 3998.28 2682.47 4023.79L2652.81 4053.28C2627.16 4078.78 2585.69 4078.66 2560.18 4053.01L2375.82 3867.58C2350.31 3841.92 2350.43 3800.45 2376.08 3774.95Z" stroke="#E0E4E9" stroke-width="11"/>
<path d="M2261.5 3958.26L2233.36 3852.03L2339.43 3880.77L2261.5 3958.26Z" stroke="#E0E4E9" stroke-width="11"/>
<path d="M2415.75 4102.43L2444.5 3996.36L2521.98 4074.29L2415.75 4102.43Z" stroke="#E0E4E9" stroke-width="11"/>
<path d="M2213.67 3327.05L2177.01 3347.18C2144.09 3365.26 2102.75 3353.23 2084.67 3320.31L1958.81 3091.11C1940.73 3058.19 1952.76 3016.85 1985.68 2998.77L2022.34 2978.64C2055.25 2960.57 2096.59 2972.6 2114.67 3005.51L2240.54 3234.72C2258.62 3267.63 2246.58 3308.97 2213.67 3327.05Z" stroke="#E0E4E9" stroke-width="6"/>
<path d="M2375.89 3176.13L2373.35 3294.66L2271.97 3233.2L2375.89 3176.13Z" stroke="#E0E4E9" stroke-width="6"/>
<path d="M2269.33 2996.78L2207.87 3098.16L2150.8 2994.24L2269.33 2996.78Z" stroke="#E0E4E9" stroke-width="6"/>
<path d="M1073.02 5041.22L1090.12 5079.39C1105.48 5113.66 1090.14 5153.89 1055.87 5169.25L817.23 5276.16C782.957 5291.51 742.726 5276.17 727.372 5241.9L710.273 5203.73C694.919 5169.46 710.256 5129.23 744.529 5113.88L983.164 5006.97C1017.44 4991.61 1057.67 5006.95 1073.02 5041.22Z" stroke="#E0E4E9" stroke-width="6"/>
<path d="M748.336 4959.02L844.409 5028.48L736.215 5076.95L748.336 4959.02Z" stroke="#E0E4E9" stroke-width="6"/>
<path d="M1715.67 4873.05L1679.01 4893.18C1646.09 4911.26 1604.75 4899.23 1586.67 4866.31L1460.81 4637.11C1442.73 4604.19 1454.76 4562.85 1487.68 4544.77L1524.34 4524.64C1557.25 4506.56 1598.59 4518.6 1616.67 4551.51L1742.54 4780.72C1760.62 4813.63 1748.59 4854.97 1715.67 4873.05Z" stroke="#E0E4E9" stroke-width="6"/>
<path d="M1877.89 4722.13L1875.35 4840.66L1773.97 4779.2L1877.89 4722.13Z" stroke="#E0E4E9" stroke-width="6"/>
<path d="M1771.33 4542.78L1709.87 4644.16L1652.8 4540.24L1771.33 4542.78Z" stroke="#E0E4E9" stroke-width="6"/>
<path d="M2273.71 5262.69L2240.49 5237.29C2210.65 5214.48 2204.95 5171.81 2227.76 5141.97L2386.57 4934.23C2409.37 4904.39 2452.05 4898.69 2481.89 4921.5L2515.11 4946.9C2544.95 4969.71 2550.65 5012.39 2527.84 5042.22L2369.03 5249.96C2346.23 5279.8 2303.55 5285.5 2273.71 5262.69Z" stroke="#E0E4E9" stroke-width="6"/>
<path d="M2477.31 5350.1L2367.86 5395.67L2383.12 5278.1L2477.31 5350.1Z" stroke="#E0E4E9" stroke-width="6"/>
<path d="M2598.32 5180.16L2480.75 5164.9L2552.75 5070.71L2598.32 5180.16Z" stroke="#E0E4E9" stroke-width="6"/>
<path d="M788.596 275.801L791.497 234.081C794.007 197.993 825.296 170.773 861.383 173.282L1122.24 191.422C1158.33 193.932 1185.55 225.221 1183.04 261.309L1180.14 303.029C1177.63 339.117 1146.34 366.337 1110.25 363.827L849.394 345.687C813.307 343.178 786.086 311.889 788.596 275.801Z" stroke="#F1F5F9" stroke-width="11"/>
<path d="M602.351 524.792L631.903 473.607C649.99 442.278 690.049 431.545 721.377 449.632L980.684 599.343C1012.01 617.43 1022.75 657.489 1004.66 688.818L975.107 740.003C957.02 771.331 916.961 782.065 885.633 763.977L626.326 614.266C594.998 596.179 584.264 556.12 602.351 524.792Z" stroke="#F1F5F9" stroke-width="11"/>
<path d="M849 485.456L731.954 417.5L849 349.544L849 485.456Z" stroke="#F1F5F9" stroke-width="11"/>
<path d="M1390.93 316.325L1425.15 340.373C1454.75 361.173 1461.88 402.028 1441.08 431.624L1290.72 645.561C1269.92 675.157 1229.07 682.288 1199.47 661.487L1165.25 637.44C1135.66 616.64 1128.53 575.785 1149.33 546.189L1299.68 332.252C1320.48 302.655 1361.34 295.525 1390.93 316.325Z" stroke="#F1F5F9" stroke-width="11"/>
<path d="M776.013 3555.98L739.356 3576.11C706.437 3594.19 665.097 3582.16 647.02 3549.24L521.153 3320.04C503.076 3287.12 515.107 3245.78 548.025 3227.7L584.683 3207.57C617.601 3189.49 658.941 3201.52 677.018 3234.44L802.885 3463.64C820.963 3496.56 808.932 3537.9 776.013 3555.98Z" stroke="#E0E4E9" stroke-width="6"/>
<path d="M938.233 3405.06L935.695 3523.59L834.316 3462.13L938.233 3405.06Z" stroke="#E0E4E9" stroke-width="6"/>
<path d="M831.675 3225.71L770.214 3327.08L713.147 3223.17L831.675 3225.71Z" stroke="#E0E4E9" stroke-width="6"/>
<path d="M590.027 1356.72L560.455 1327.15C534.876 1301.57 534.876 1260.1 560.455 1234.52L745.355 1049.62C770.934 1024.04 812.406 1024.04 837.986 1049.62L867.558 1079.19C893.137 1104.77 893.137 1146.24 867.558 1171.82L682.658 1356.72C657.079 1382.3 615.606 1382.3 590.027 1356.72Z" stroke="#E0E4E9" stroke-width="11"/>
<path d="M773.667 1470.78L667.517 1499.22L695.96 1393.07L773.667 1470.78Z" stroke="#E0E4E9" stroke-width="11"/>
<path d="M917.395 1316.11L811.245 1287.67L888.952 1209.96L917.395 1316.11Z" stroke="#E0E4E9" stroke-width="11"/>
<path d="M2361.66 2388.48L2397.43 2410.15C2429.55 2429.61 2439.81 2471.43 2420.35 2503.55L2284.85 2727.19C2265.39 2759.31 2223.58 2769.57 2191.46 2750.11L2155.69 2728.44C2123.57 2708.97 2113.31 2667.16 2132.77 2635.04L2268.27 2411.4C2287.73 2379.28 2329.54 2369.02 2361.66 2388.48Z" stroke="#E0E4E9" stroke-width="6"/>
<path d="M2149.84 2323.51L2253.74 2266.42L2251.23 2384.94L2149.84 2323.51Z" stroke="#E0E4E9" stroke-width="6"/>
<path d="M2047.84 2505.49L2166.37 2508L2104.93 2609.4L2047.84 2505.49Z" stroke="#E0E4E9" stroke-width="6"/>
<path d="M2600.02 1796.97H2641.84C2678.01 1796.97 2707.34 1826.3 2707.34 1862.47V2123.96C2707.34 2160.13 2678.01 2189.46 2641.84 2189.46H2600.02C2563.84 2189.46 2534.52 2160.13 2534.52 2123.96V1862.47C2534.52 1826.3 2563.84 1796.97 2600.02 1796.97Z" stroke="#E0E4E9" stroke-width="11"/>
<path d="M2389.51 1846.17L2444.46 1751L2499.41 1846.17H2389.51Z" stroke="#E0E4E9" stroke-width="11"/>
<path d="M2397.25 2057.17L2492.42 2002.22L2492.42 2112.12L2397.25 2057.17Z" stroke="#E0E4E9" stroke-width="11"/>
<path d="M1897.36 1518.52L1878.46 1555.83C1861.74 1588.84 1821.42 1602.05 1788.42 1585.33L1555.15 1467.17C1522.14 1450.45 1508.93 1410.13 1525.65 1377.12L1544.55 1339.81C1561.27 1306.8 1601.59 1293.6 1634.6 1310.32L1867.86 1428.48C1900.87 1445.2 1914.08 1485.51 1897.36 1518.52Z" stroke="#E0E4E9" stroke-width="8"/>
<path d="M1681.83 1596.51L1781.5 1654.05L1681.83 1711.6L1681.83 1596.51Z" stroke="#E0E4E9" stroke-width="8"/>
<path d="M1752.06 1224.76L1758.36 1339.68L1655.69 1287.67L1752.06 1224.76Z" stroke="#E0E4E9" stroke-width="8"/>
<rect x="322.117" y="974.501" width="743.17" height="656.05" rx="121" transform="rotate(-111.775 322.117 974.501)" fill="#D74F37"/>
<rect x="322.117" y="974.501" width="743.17" height="656.05" rx="121" transform="rotate(-111.775 322.117 974.501)" fill="url(#paint0_linear_68_20)" fill-opacity="0.1"/>
<rect x="322.117" y="974.501" width="743.17" height="656.05" rx="121" transform="rotate(-111.775 322.117 974.501)" stroke="#F1F5F9" stroke-width="7"/>
<rect x="322.117" y="974.501" width="743.17" height="656.05" rx="121" transform="rotate(-111.775 322.117 974.501)" stroke="#DB5139" stroke-width="7"/>
<path d="M419.596 442.801L422.497 401.081C425.006 364.993 456.296 337.773 492.383 340.282L753.241 358.422C789.328 360.932 816.549 392.221 814.039 428.308L811.138 470.029C808.628 506.116 777.339 533.337 741.252 530.827L480.394 512.687C444.307 510.178 417.086 478.889 419.596 442.801Z" stroke="#F1F5F9" stroke-width="11"/>
<path d="M233.351 691.791L262.903 640.606C280.99 609.278 321.049 598.544 352.377 616.632L611.684 766.343C643.012 784.43 653.746 824.489 635.659 855.817L606.107 907.002C588.02 938.33 547.961 949.064 516.633 930.977L257.326 781.266C225.997 763.179 215.264 723.119 233.351 691.791Z" stroke="#F1F5F9" stroke-width="11"/>
<path d="M480 652.456L362.954 584.5L480 516.544L480 652.456Z" stroke="#F1F5F9" stroke-width="11"/>
<path d="M1021.93 483.325L1056.15 507.372C1085.75 528.173 1092.88 569.028 1072.08 598.624L921.72 812.561C900.92 842.157 860.065 849.288 830.469 828.487L796.252 804.44C766.656 783.639 759.526 742.785 780.326 713.188L930.682 499.252C951.482 469.655 992.337 462.525 1021.93 483.325Z" stroke="#F1F5F9" stroke-width="11"/>
<rect x="2040.16" y="733.382" width="742.654" height="687.221" rx="121" transform="rotate(-26.4504 2040.16 733.382)" fill="#D74F37"/>
<rect x="2040.16" y="733.382" width="742.654" height="687.221" rx="121" transform="rotate(-26.4504 2040.16 733.382)" fill="url(#paint1_linear_68_20)" fill-opacity="0.2"/>
<rect x="2040.16" y="733.382" width="742.654" height="687.221" rx="121" transform="rotate(-26.4504 2040.16 733.382)" stroke="#F1F5F9" stroke-width="7"/>
<rect x="2040.16" y="733.382" width="742.654" height="687.221" rx="121" transform="rotate(-26.4504 2040.16 733.382)" stroke="#DB5139" stroke-width="7"/>
<path d="M2628.06 493.874L2669.88 493.364C2706.05 492.924 2735.73 521.89 2736.17 558.062L2739.36 819.53C2739.8 855.702 2710.83 885.382 2674.66 885.823L2632.84 886.332C2596.67 886.773 2566.99 857.807 2566.55 821.635L2563.36 560.167C2562.92 523.995 2591.89 494.315 2628.06 493.874Z" stroke="#F1F5F9" stroke-width="11"/>
<path d="M2314.47 621.98L2367.89 647.261C2400.59 662.734 2414.55 701.785 2399.08 734.483L2271 1005.13C2255.53 1037.83 2216.48 1051.79 2183.78 1036.32L2130.36 1011.04C2097.66 995.566 2083.7 956.515 2099.17 923.817L2227.24 653.169C2242.72 620.47 2281.77 606.507 2314.47 621.98Z" stroke="#F1F5F9" stroke-width="11"/>
<path d="M2415.91 1096.41L2474.1 974.213L2551.37 1085.33L2415.91 1096.41Z" stroke="#F1F5F9" stroke-width="11"/>
<path d="M2586.52 1390.94L2565.35 1427.01C2547.03 1458.2 2506.89 1468.64 2475.7 1450.32L2250.21 1317.9C2219.02 1299.58 2208.58 1259.45 2226.9 1228.25L2248.08 1192.19C2266.4 1161 2306.54 1150.56 2337.73 1168.88L2563.21 1301.29C2594.4 1319.61 2604.84 1359.75 2586.52 1390.94Z" stroke="#F1F5F9" stroke-width="11"/>
<rect x="2346.31" y="2930.55" width="696.602" height="614.941" rx="121" transform="rotate(-30.3602 2346.31 2930.55)" fill="#D74F37"/>
<rect x="2346.31" y="2930.55" width="696.602" height="614.941" rx="121" transform="rotate(-30.3602 2346.31 2930.55)" fill="url(#paint2_linear_68_20)" fill-opacity="0.1"/>
<rect x="2346.31" y="2930.55" width="696.602" height="614.941" rx="121" transform="rotate(-30.3602 2346.31 2930.55)" stroke="#F1F5F9" stroke-width="7"/>
<rect x="2346.31" y="2930.55" width="696.602" height="614.941" rx="121" transform="rotate(-30.3602 2346.31 2930.55)" stroke="#DB5139" stroke-width="7"/>
<path d="M2857.21 2946.48L2887.42 2944.05C2923.48 2941.14 2955.06 2968.01 2957.97 3004.07L2976.94 3239.51C2979.85 3275.57 2952.98 3307.16 2916.92 3310.06L2886.71 3312.5C2850.66 3315.4 2819.07 3288.53 2816.16 3252.47L2797.19 3017.03C2794.28 2980.97 2821.16 2949.39 2857.21 2946.48Z" stroke="#F1F5F9" stroke-width="11"/>
<path d="M2599.93 2810.66L2643.22 2827.64C2676.9 2840.85 2693.5 2878.86 2680.29 2912.54L2581.07 3165.54C2567.86 3199.21 2529.85 3215.81 2496.17 3202.6L2452.88 3185.62C2419.2 3172.41 2402.61 3134.41 2415.82 3100.73L2515.04 2847.73C2528.25 2814.05 2566.26 2797.46 2599.93 2810.66Z" stroke="#F1F5F9" stroke-width="11"/>
<path d="M2667.43 3031.39L2713.6 2914.5L2792.21 3012.55L2667.43 3031.39Z" stroke="#F1F5F9" stroke-width="11"/>
<path d="M2897.19 3514.26L2883.66 3541.38C2867.51 3573.75 2828.18 3586.9 2795.81 3570.75L2584.44 3465.3C2552.07 3449.15 2538.93 3409.82 2555.07 3377.45L2568.6 3350.33C2584.75 3317.96 2624.08 3304.81 2656.45 3320.96L2867.82 3426.41C2900.19 3442.56 2913.34 3481.89 2897.19 3514.26Z" stroke="#F1F5F9" stroke-width="11"/>
<rect x="1286.87" y="5084.91" width="743.169" height="656.05" rx="121" transform="rotate(126.055 1286.87 5084.91)" fill="#D74F37"/>
<rect x="1286.87" y="5084.91" width="743.169" height="656.05" rx="121" transform="rotate(126.055 1286.87 5084.91)" fill="url(#paint3_linear_68_20)" fill-opacity="0.2"/>
<rect x="1286.87" y="5084.91" width="743.169" height="656.05" rx="121" transform="rotate(126.055 1286.87 5084.91)" stroke="#F1F5F9" stroke-width="7"/>
<rect x="1286.87" y="5084.91" width="743.169" height="656.05" rx="121" transform="rotate(126.055 1286.87 5084.91)" stroke="#DB5139" stroke-width="7"/>
<path d="M784.902 5285.49L748.042 5305.25C716.159 5322.34 676.458 5310.35 659.368 5278.46L535.833 5048C518.743 5016.12 530.735 4976.41 562.618 4959.32L599.478 4939.57C631.361 4922.48 671.062 4934.47 688.152 4966.35L811.687 5196.82C828.777 5228.7 816.785 5268.4 784.902 5285.49Z" stroke="#F1F5F9" stroke-width="11"/>
<path d="M1094.83 5310.57L1035.77 5312.81C999.619 5314.18 969.204 5285.99 967.834 5249.84L956.495 4950.63C955.125 4914.48 983.319 4884.07 1019.47 4882.7L1078.53 4880.46C1114.68 4879.09 1145.09 4907.28 1146.46 4943.43L1157.8 5242.64C1159.17 5278.79 1130.98 5309.2 1094.83 5310.57Z" stroke="#F1F5F9" stroke-width="11"/>
<path d="M930.207 5122.73L935.004 5257.99L815.161 5195.1L930.207 5122.73Z" stroke="#F1F5F9" stroke-width="11"/>
<path d="M498.497 4754.06L500.634 4712.29C502.483 4676.16 533.269 4648.37 569.396 4650.22L830.542 4663.59C866.67 4665.43 894.458 4696.22 892.609 4732.35L890.472 4774.11C888.623 4810.24 857.837 4838.03 821.71 4836.18L560.564 4822.82C524.437 4820.97 496.648 4790.18 498.497 4754.06Z" stroke="#F1F5F9" stroke-width="11"/>
<defs>
<linearGradient id="paint0_linear_68_20" x1="1034.98" y1="1021.69" x2="356.433" y2="1589.49" gradientUnits="userSpaceOnUse">
<stop stop-opacity="0"/>
<stop offset="1"/>
</linearGradient>
<linearGradient id="paint1_linear_68_20" x1="2752.53" y1="782.812" x2="2048.38" y2="1344.93" gradientUnits="userSpaceOnUse">
<stop stop-opacity="0"/>
<stop offset="1"/>
</linearGradient>
<linearGradient id="paint2_linear_68_20" x1="3014.5" y1="2974.78" x2="2378.48" y2="3507.01" gradientUnits="userSpaceOnUse">
<stop stop-opacity="0"/>
<stop offset="1"/>
</linearGradient>
<linearGradient id="paint3_linear_68_20" x1="1999.73" y1="5132.1" x2="1321.19" y2="5699.9" gradientUnits="userSpaceOnUse">
<stop stop-opacity="0"/>
<stop offset="1"/>
</linearGradient>
</defs>
</svg>
