<svg width="1356" height="1374" viewBox="0 0 1356 1374" fill="none" xmlns="http://www.w3.org/2000/svg">
<rect width="792.398" height="667.253" rx="121" transform="matrix(-0.882016 -0.471219 0.434905 -0.900476 882.017 1174.08)" fill="#F25A3F"/>
<rect width="792.398" height="667.253" rx="121" transform="matrix(-0.882016 -0.471219 0.434905 -0.900476 882.017 1174.08)" fill="url(#paint0_linear_114_9)" fill-opacity="0.2"/>
<path d="M496.027 566.296L464.744 525.205C442.832 496.422 448.401 455.325 477.184 433.413L685.239 275.019C714.022 253.106 755.119 258.676 777.031 287.458L808.314 328.549C830.227 357.332 824.657 398.429 795.874 420.341L587.819 578.736C559.036 600.648 517.94 595.079 496.027 566.296Z" stroke="#F1F5F9" stroke-width="11"/>
<path d="M496.027 566.296L464.744 525.205C442.832 496.422 448.401 455.325 477.184 433.413L685.239 275.019C714.022 253.106 755.119 258.676 777.031 287.458L808.314 328.549C830.227 357.332 824.657 398.429 795.874 420.341L587.819 578.736C559.036 600.648 517.94 595.079 496.027 566.296Z" stroke="#F1F5F9" stroke-width="11"/>
<path d="M528.234 879.826L520.908 831.138C515.526 795.366 540.329 763.315 576.307 759.55L841.841 731.762C877.82 727.997 911.349 753.943 916.731 789.715L924.057 838.403C929.439 874.175 904.637 906.226 868.659 909.991L603.124 937.779C567.146 941.545 533.616 915.598 528.234 879.826Z" stroke="#F1F5F9" stroke-width="11"/>
<path d="M667.355 710.116L556.085 721.76L596.924 617.602L667.355 710.116Z" stroke="#F1F5F9" stroke-width="11"/>
<path d="M830.262 575.864L725.34 529.167L813.174 462.299L830.262 575.864Z" stroke="#F1F5F9" stroke-width="11"/>
<defs>
<linearGradient id="paint0_linear_114_9" x1="647.467" y1="364.131" x2="169.116" y2="363.569" gradientUnits="userSpaceOnUse">
<stop offset="0.198436" stop-opacity="0"/>
<stop offset="0.549719"/>
</linearGradient>
</defs>
</svg>
