<svg width="2371" height="2372" viewBox="0 0 2371 2372" fill="none" xmlns="http://www.w3.org/2000/svg">
<path d="M187.186 1548.06C161.605 1573.64 120.122 1573.65 94.5439 1548.07L54.0934 1507.62C28.514 1482.05 28.514 1440.57 54.0933 1414.99L238.993 1230.09C264.572 1204.51 306.045 1204.51 331.624 1230.09L372.075 1270.54C397.653 1296.12 397.644 1337.61 372.064 1363.19L187.186 1548.06Z" stroke="#E0E4E9" stroke-width="11"/>
<path d="M2215.97 912.773L2245.85 1018.53L2139.32 991.53L2215.97 912.773Z" stroke="#E0E4E9" stroke-width="11"/>
<path d="M1647.81 658.186C1622.23 683.767 1580.74 683.775 1555.17 658.197L1525.59 628.625C1500.01 603.045 1500.01 561.573 1525.59 535.994L1710.49 351.094C1736.07 325.515 1777.54 325.515 1803.12 351.094L1832.7 380.666C1858.27 406.244 1858.27 447.728 1832.69 473.308L1647.81 658.186Z" stroke="#E0E4E9" stroke-width="11"/>
<path d="M1868.97 504.773L1898.85 610.526L1792.32 583.53L1868.97 504.773Z" stroke="#E0E4E9" stroke-width="11"/>
</svg>
