<svg width="41" height="45" viewBox="0 0 41 45" fill="none" xmlns="http://www.w3.org/2000/svg">
<path d="M20.3897 15.6822C19.5322 15.6822 18.8212 14.9711 18.8212 14.1136V5.35081L17.3154 6.8566C16.7089 7.46309 15.7049 7.46309 15.0984 6.8566C14.4919 6.2501 14.4919 5.24624 15.0984 4.63975L19.2813 0.457013C19.7205 0.0178265 20.4106 -0.128569 20.9962 0.122395C21.5818 0.352445 21.9582 0.938028 21.9582 1.56544V14.1136C21.9582 14.9711 21.2472 15.6822 20.3897 15.6822Z" fill="#292D32"/>
<path d="M24.5724 7.31663C24.1751 7.31663 23.7777 7.17024 23.464 6.85653L19.2813 2.6738C18.6748 2.0673 18.6748 1.06344 19.2813 0.456947C19.8878 -0.149549 20.8916 -0.149549 21.4981 0.456947L25.6809 4.63968C26.2874 5.24618 26.2874 6.25003 25.6809 6.85653C25.3672 7.17024 24.9698 7.31663 24.5724 7.31663Z" fill="#292D32"/>
<path d="M28.7563 44.9614H12.0254C0 44.9614 0 38.5827 0 32.936V30.8446C0 26.1809 0 20.9106 9.93399 20.9106C12.4227 20.9106 13.3429 21.5171 14.6396 22.4792C14.7023 22.5419 14.786 22.5837 14.8487 22.6674L16.9819 24.9261C18.7805 26.8292 22.043 26.8292 23.8416 24.9261L25.9748 22.6674C26.0375 22.6047 26.1003 22.5419 26.1839 22.4792C27.4806 21.4962 28.4008 20.9106 30.8895 20.9106C40.8235 20.9106 40.8235 26.1809 40.8235 30.8446V32.936C40.7817 40.925 36.7453 44.9614 28.7563 44.9614ZM9.93399 24.0477C3.13705 24.0477 3.13705 26.1809 3.13705 30.8446V32.936C3.13705 38.6663 3.13705 41.8243 12.0254 41.8243H28.7563C34.9886 41.8243 37.6446 39.1683 37.6446 32.936V30.8446C37.6446 26.1809 37.6446 24.0477 30.8477 24.0477C29.3419 24.0477 29.0282 24.2359 28.1289 24.9052L26.1003 27.0593C24.5945 28.6487 22.5658 29.5271 20.3908 29.5271C18.2158 29.5271 16.1872 28.6487 14.6814 27.0593L12.6528 24.9052C11.7535 24.2359 11.4398 24.0477 9.93399 24.0477Z" fill="#292D32"/>
<path d="M5.75114 24.048C4.89368 24.048 4.18262 23.3369 4.18262 22.4795V18.2968C4.18262 14.2395 4.18262 9.19935 11.8788 8.46737C12.7154 8.3628 13.5101 9.01113 13.5938 9.8895C13.6774 10.747 13.05 11.5208 12.1716 11.6044C7.31967 12.0436 7.31967 14.0095 7.31967 18.2968V22.4795C7.31967 23.3369 6.6086 24.048 5.75114 24.048Z" fill="#292D32"/>
<path d="M35.0291 24.048C34.1717 24.048 33.4606 23.337 33.4606 22.4795V18.2968C33.4606 14.0095 33.4606 12.0436 28.6086 11.5835C27.7512 11.4999 27.1238 10.7261 27.2074 9.8686C27.2911 9.01114 28.044 8.36281 28.9224 8.46738C36.6186 9.19936 36.6186 14.2396 36.6186 18.2968V22.4795C36.5977 23.337 35.8866 24.048 35.0291 24.048Z" fill="#292D32"/>
</svg>
