<svg width="43" height="43" viewBox="0 0 43 43" fill="none" xmlns="http://www.w3.org/2000/svg">
<path d="M15.65 41H27.35C37.1 41 41 37.1 41 27.35V15.65C41 5.9 37.1 2 27.35 2H15.65C5.9 2 2 5.9 2 15.65V27.35C2 37.1 5.9 41 15.65 41Z" stroke="#292D32" stroke-width="3" stroke-linecap="round" stroke-linejoin="round"/>
<path d="M21.5 28.325C25.2694 28.325 28.325 25.2694 28.325 21.5C28.325 17.7307 25.2694 14.675 21.5 14.675C17.7307 14.675 14.675 17.7307 14.675 21.5C14.675 25.2694 17.7307 28.325 21.5 28.325Z" stroke="#292D32" stroke-width="3" stroke-linecap="round" stroke-linejoin="round"/>
<path d="M32.4905 11.75H32.5131" stroke="#292D32" stroke-width="3" stroke-linecap="round" stroke-linejoin="round"/>
</svg>
